<svg width="428" height="422" viewBox="0 0 428 422" fill="none" xmlns="http://www.w3.org/2000/svg">
<path d="M0 112C0 50.1441 50.1441 0 112 0H316C377.856 0 428 50.1441 428 112V310C428 371.856 377.856 422 316 422H112C50.1441 422 0 371.856 0 310V112Z" fill="#6138C8" fill-opacity="0.39"/>
<path d="M230 275H182V307C182 342.2 153.2 371 118 371C82.8 371 54 342.2 54 307C54 271.8 82.8 243 118 243H230V275ZM278 195V243H310C345.2 243 374 271.8 374 307C374 342.2 345.2 371 310 371C274.8 371 246 342.2 246 307V195H278ZM118 275C100.4 275 86 289.4 86 307C86 324.6 100.4 339 118 339C135.6 339 150 324.6 150 307V275H118ZM278 275V307C278 324.6 292.4 339 310 339C327.6 339 342 324.6 342 307C342 289.4 327.6 275 310 275H278ZM120 55C155.2 55 184 83.8 184 119V231H152V183H120C84.8 183 56 154.2 56 119C56 83.8 84.8 55 120 55ZM310 51C345.2 51 374 79.8 374 115C374 150.2 345.2 179 310 179H198V147H246V115C246 79.8 274.8 51 310 51ZM120 87C102.4 87 88 101.4 88 119C88 136.6 102.4 151 120 151H152V119C152 101.4 137.6 87 120 87ZM310 83C292.4 83 278 97.4 278 115V147H310C327.6 147 342 132.6 342 115C342 97.4 327.6 83 310 83Z" fill="#6138C8"/>
<path d="M230 275V276H231V275H230ZM182 275V274H181V275H182ZM230 243H231V242H230V243ZM278 195H279V194H278V195ZM278 243H277V244H278V243ZM246 195V194H245V195H246ZM150 275H151V274H150V275ZM278 275V274H277V275H278ZM184 231V232H185V231H184ZM152 231H151V232H152V231ZM152 183H153V182H152V183ZM198 179H197V180H198V179ZM198 147V146H197V147H198ZM246 147V148H247V147H246ZM152 151V152H153V151H152ZM278 147H277V148H278V147ZM230 275V274H182V275V276H230V275ZM182 275H181V307H182H183V275H182ZM182 307H181C181 341.648 152.648 370 118 370V371V372C153.752 372 183 342.752 183 307H182ZM118 371V370C83.3523 370 55 341.648 55 307H54H53C53 342.752 82.2477 372 118 372V371ZM54 307H55C55 272.352 83.3523 244 118 244V243V242C82.2477 242 53 271.248 53 307H54ZM118 243V244H230V243V242H118V243ZM230 243H229V275H230H231V243H230ZM278 195H277V243H278H279V195H278ZM278 243V244H310V243V242H278V243ZM310 243V244C344.648 244 373 272.352 373 307H374H375C375 271.248 345.752 242 310 242V243ZM374 307H373C373 341.648 344.648 370 310 370V371V372C345.752 372 375 342.752 375 307H374ZM310 371V370C275.352 370 247 341.648 247 307H246H245C245 342.752 274.248 372 310 372V371ZM246 307H247V195H246H245V307H246ZM246 195V196H278V195V194H246V195ZM118 275V274C99.8477 274 85 288.848 85 307H86H87C87 289.952 100.952 276 118 276V275ZM86 307H85C85 325.152 99.8477 340 118 340V339V338C100.952 338 87 324.048 87 307H86ZM118 339V340C136.152 340 151 325.152 151 307H150H149C149 324.048 135.048 338 118 338V339ZM150 307H151V275H150H149V307H150ZM150 275V274H118V275V276H150V275ZM278 275H277V307H278H279V275H278ZM278 307H277C277 325.152 291.848 340 310 340V339V338C292.952 338 279 324.048 279 307H278ZM310 339V340C328.152 340 343 325.152 343 307H342H341C341 324.048 327.048 338 310 338V339ZM342 307H343C343 288.848 328.152 274 310 274V275V276C327.048 276 341 289.952 341 307H342ZM310 275V274H278V275V276H310V275ZM120 55V56C154.648 56 183 84.3523 183 119H184H185C185 83.2477 155.752 54 120 54V55ZM184 119H183V231H184H185V119H184ZM184 231V230H152V231V232H184V231ZM152 231H153V183H152H151V231H152ZM152 183V182H120V183V184H152V183ZM120 183V182C85.3523 182 57 153.648 57 119H56H55C55 154.752 84.2477 184 120 184V183ZM56 119H57C57 84.3523 85.3523 56 120 56V55V54C84.2477 54 55 83.2477 55 119H56ZM310 51V52C344.648 52 373 80.3523 373 115H374H375C375 79.2477 345.752 50 310 50V51ZM374 115H373C373 149.648 344.648 178 310 178V179V180C345.752 180 375 150.752 375 115H374ZM310 179V178H198V179V180H310V179ZM198 179H199V147H198H197V179H198ZM198 147V148H246V147V146H198V147ZM246 147H247V115H246H245V147H246ZM246 115H247C247 80.3523 275.352 52 310 52V51V50C274.248 50 245 79.2477 245 115H246ZM120 87V86C101.848 86 87 100.848 87 119H88H89C89 101.952 102.952 88 120 88V87ZM88 119H87C87 137.152 101.848 152 120 152V151V150C102.952 150 89 136.048 89 119H88ZM120 151V152H152V151V150H120V151ZM152 151H153V119H152H151V151H152ZM152 119H153C153 100.848 138.152 86 120 86V87V88C137.048 88 151 101.952 151 119H152ZM310 83V82C291.848 82 277 96.8477 277 115H278H279C279 97.9523 292.952 84 310 84V83ZM278 115H277V147H278H279V115H278ZM278 147V148H310V147V146H278V147ZM310 147V148C328.152 148 343 133.152 343 115H342H341C341 132.048 327.048 146 310 146V147ZM342 115H343C343 96.8477 328.152 82 310 82V83V84C327.048 84 341 97.9523 341 115H342Z" fill="#F7F0EA"/>
<circle cx="148" cy="276" r="5" fill="#6138C8" stroke="#FFEA00" stroke-width="2"/>
<circle cx="180" cy="276" r="5" fill="#6138C8" stroke="#FFEA00" stroke-width="2"/>
<circle cx="116" cy="340" r="5" fill="#6138C8" stroke="#FFEA00" stroke-width="2"/>
<circle cx="116" cy="372" r="5" fill="#6138C8" stroke="#FFEA00" stroke-width="2"/>
<circle cx="84" cy="308" r="5" fill="#6138C8" stroke="#FFEA00" stroke-width="2"/>
<circle cx="52" cy="308" r="5" fill="#6138C8" stroke="#FFEA00" stroke-width="2"/>
<circle cx="116" cy="244" r="5" fill="#6138C8" stroke="#FFEA00" stroke-width="2"/>
<circle cx="116" cy="276" r="5" fill="#6138C8" stroke="#FFEA00" stroke-width="2"/>
<circle cx="148" cy="228" r="5" fill="#6138C8" stroke="#FFEA00" stroke-width="2"/>
<circle cx="148" cy="180" r="5" fill="#6138C8" stroke="#FFEA00" stroke-width="2"/>
<circle cx="148" cy="148" r="5" fill="#6138C8" stroke="#FFEA00" stroke-width="2"/>
<circle cx="116" cy="84" r="5" fill="#6138C8" stroke="#FFEA00" stroke-width="2"/>
<circle cx="116" cy="52" r="5" fill="#6138C8" stroke="#FFEA00" stroke-width="2"/>
<circle cx="84" cy="116" r="5" fill="#6138C8" stroke="#FFEA00" stroke-width="2"/>
<circle cx="52" cy="116" r="5" fill="#6138C8" stroke="#FFEA00" stroke-width="2"/>
<circle cx="180" cy="116" r="5" fill="#6138C8" stroke="#FFEA00" stroke-width="2"/>
<circle cx="148" cy="116" r="5" fill="#6138C8" stroke="#FFEA00" stroke-width="2"/>
<circle cx="116" cy="148" r="5" fill="#6138C8" stroke="#FFEA00" stroke-width="2"/>
<circle cx="116" cy="180" r="5" fill="#6138C8" stroke="#FFEA00" stroke-width="2"/>
<circle cx="196" cy="180" r="5" fill="#6138C8" stroke="#FFEA00" stroke-width="2"/>
<circle cx="196" cy="148" r="5" fill="#6138C8" stroke="#FFEA00" stroke-width="2"/>
<circle cx="180" cy="228" r="5" fill="#6138C8" stroke="#FFEA00" stroke-width="2"/>
</svg>
